<svg xmlns="http://www.w3.org/2000/svg" fill="none" viewBox="0 0 235.7078313253012 118" style="max-height: 500px" width="235.7078313253012" height="118">
<path fill="#A0FF42" d="M82.4556 115H50.4556L0.215625 2.99999H29.4956L66.6156 90.2H67.0956L104.536 2.99999H132.696L82.4556 115ZM185.682 117.4C176.295 117.4 167.975 116.28 160.722 114.04C153.469 111.693 147.709 109.133 143.442 106.36C139.175 103.48 136.135 101.08 134.322 99.16L149.202 82.2C150.589 83.5867 152.882 85.3467 156.082 87.48C159.389 89.5067 163.495 91.32 168.402 92.92C173.415 94.52 178.802 95.32 184.562 95.32C191.495 95.32 196.882 94.2 200.722 91.96C204.562 89.6133 206.482 86.6267 206.482 83C206.482 80.44 205.415 78.3067 203.282 76.6C201.149 74.7867 198.429 73.3467 195.122 72.28C191.815 71.1067 187.282 69.7733 181.522 68.28C172.775 66.04 165.522 63.8 159.762 61.56C154.109 59.2133 149.202 55.8 145.042 51.32C140.989 46.84 138.962 40.9733 138.962 33.72C138.962 27.32 140.829 21.6133 144.562 16.6C148.295 11.5867 153.629 7.69333 160.562 4.92C167.495 2.04 175.709 0.599995 185.202 0.599995C196.082 0.599995 205.575 2.30666 213.682 5.72C221.789 9.02666 227.869 12.44 231.922 15.96L216.882 33.24C215.815 32.1733 213.842 30.7867 210.962 29.08C208.189 27.3733 204.669 25.88 200.402 24.6C196.135 23.2133 191.602 22.52 186.802 22.52C180.722 22.52 175.869 23.5867 172.242 25.72C168.722 27.8533 166.962 30.4667 166.962 33.56C166.962 36.9733 168.882 39.5867 172.722 41.4C176.562 43.2133 182.749 45.24 191.282 47.48C200.242 49.8267 207.602 52.1733 213.362 54.52C219.122 56.76 224.082 60.1733 228.242 64.76C232.402 69.3467 234.482 75.32 234.482 82.68C234.482 89.4 232.509 95.4267 228.562 100.76C224.722 105.987 219.122 110.093 211.762 113.08C204.402 115.96 195.709 117.4 185.682 117.4Z"/>
</svg>