<svg width="160" height="160" viewBox="0 0 160 160" fill="none" xmlns="http://www.w3.org/2000/svg">
<circle cx="80" cy="80" r="80" fill="#E21B90"/>
<path d="M140.039 80.0472C140.039 113.184 113.177 140.047 80.0394 140.047C46.9023 140.047 20.0394 113.184 20.0394 80.0472C20.0394 46.9102 46.9023 20.0472 80.0394 20.0472C113.177 20.0472 140.039 46.9102 140.039 80.0472Z" fill="#E21B90"/>
<path d="M145.356 87.5107C145.203 89.0993 144.551 90.4107 143.402 91.4449L142.153 90.1487C142.982 89.4331 143.452 88.502 143.563 87.3553C143.672 86.2206 143.322 85.174 142.51 84.2154C141.709 83.27 140.664 82.7349 139.374 82.6102C138.084 82.4854 136.95 82.8097 135.971 83.5831C135.002 84.3696 134.463 85.3301 134.354 86.4648C134.245 87.5876 134.539 88.6046 135.234 89.5158L133.762 90.5307C132.811 89.2693 132.411 87.8503 132.564 86.2737C132.665 85.2226 133.025 84.2447 133.643 83.3399C134.273 82.4364 135.114 81.722 136.165 81.1967C137.217 80.6715 138.346 80.4672 139.552 80.5839C140.77 80.7017 141.845 81.1191 142.776 81.836C143.72 82.5541 144.408 83.4164 144.841 84.4228C145.286 85.4303 145.458 86.4596 145.356 87.5107Z" fill="white"/>
<path d="M140.02 107.384L128.111 103.27L128.722 101.5L136.667 104.245L129.986 97.8424L130.486 96.3963L139.666 95.5116L131.738 92.7725L132.349 91.0031L144.258 95.1177L143.67 96.819L132.717 97.9861L140.614 105.666L140.02 107.384Z" fill="white"/>
<path d="M134.71 116.544C133.786 117.918 132.461 118.791 130.735 119.163C129.01 119.535 127.385 119.209 125.862 118.184C124.339 117.159 123.424 115.777 123.119 114.038C122.814 112.3 123.123 110.743 124.048 109.369C124.952 108.025 126.274 107.157 128.013 106.766C129.762 106.38 131.393 106.697 132.906 107.715C134.42 108.734 135.322 110.122 135.614 111.881C135.916 113.646 135.615 115.2 134.71 116.544ZM133.217 115.54C133.854 114.594 134.05 113.518 133.805 112.312C133.564 111.123 132.886 110.153 131.771 109.403C130.656 108.652 129.497 108.386 128.295 108.604C127.095 108.838 126.178 109.428 125.541 110.374C124.871 111.37 124.664 112.452 124.918 113.622C125.173 114.791 125.862 115.754 126.987 116.511C128.112 117.268 129.264 117.544 130.444 117.34C131.623 117.135 132.547 116.535 133.217 115.54Z" fill="white"/>
<path d="M122.436 130.271L121.291 129.075L123.735 126.735L116.167 118.83L117.585 117.473L125.153 125.378L127.597 123.038L128.742 124.234L122.436 130.271Z" fill="white"/>
<path d="M115.965 134.945C114.822 135.697 113.713 135.987 112.64 135.817C111.556 135.653 110.697 135.09 110.065 134.127C109.432 133.164 109.256 132.153 109.536 131.093C109.806 130.04 110.512 129.138 111.656 128.387L113.641 127.082L111.032 123.11L112.596 122.082L119.516 132.613L115.965 134.945ZM112.655 129.711C111.953 130.173 111.51 130.7 111.327 131.295C111.133 131.896 111.234 132.498 111.629 133.099C112.025 133.701 112.537 134.032 113.165 134.093C113.784 134.16 114.444 133.963 115.146 133.502L117.042 132.257L114.551 128.466L112.655 129.711Z" fill="white"/>
<path d="M103.461 129.464L97.8589 131.883L97.2096 130.379L104.563 127.204L109.558 138.771L102.37 141.875L101.72 140.371L107.157 138.024L105.616 134.454L101.832 136.088L101.182 134.585L104.967 132.951L103.461 129.464Z" fill="white"/>
<path d="M91.0104 144.868L90.6321 143.256L93.9267 142.483L91.427 131.829L93.3372 131.381L95.8368 142.035L99.1314 141.262L99.5096 142.875L91.0104 144.868Z" fill="white"/>
<path d="M82.5202 132.991L86.7651 132.827L87.2512 145.418L85.3806 145.49L85.1973 140.742L82.823 140.833C81.4561 140.886 80.3567 140.562 79.5251 139.862C78.6815 139.162 78.2374 138.236 78.193 137.085C78.1485 135.934 78.5199 134.977 79.307 134.214C80.0822 133.452 81.1533 133.044 82.5202 132.991ZM82.8671 139.174L85.1334 139.087L84.9584 134.554L82.692 134.642C81.8527 134.674 81.2008 134.897 80.7364 135.312C80.2601 135.726 80.0358 136.293 80.0636 137.013C80.0914 137.732 80.3587 138.281 80.8656 138.657C81.3605 139.034 82.0277 139.207 82.8671 139.174Z" fill="white"/>
<path d="M14.4685 72.5249L14.4756 70.7069L27.0755 70.7556L27.0048 89.0614L14.4049 89.0128L14.4119 87.1948L25.4278 87.2373L25.4526 80.8114L14.4367 80.7689L14.4437 78.9509L25.4597 78.9934L25.4845 72.5674L14.4685 72.5249Z" fill="white"/>
<path d="M17.2941 60.4109C17.7934 58.832 18.8183 57.6206 20.3689 56.7768C21.9194 55.9331 23.57 55.788 25.3206 56.3415C27.0711 56.8951 28.3382 57.9628 29.1217 59.5446C29.9052 61.1265 30.0473 62.7069 29.5481 64.2858C29.0596 65.8304 28.0365 67.0361 26.4787 67.9027C24.9095 68.7657 23.2553 68.9223 21.5162 68.3724C19.7771 67.8224 18.5194 66.7451 17.7431 65.1403C16.9553 63.532 16.8057 61.9555 17.2941 60.4109ZM19.0104 60.9536C18.6666 62.0406 18.7822 63.128 19.3569 64.2159C19.9238 65.2888 20.848 66.0278 22.1294 66.433C23.4109 66.8382 24.5977 66.7667 25.6898 66.2185C26.7741 65.6552 27.4881 64.8301 27.8318 63.7431C28.1936 62.599 28.0874 61.5019 27.5133 60.4519C26.9391 59.402 26.0056 58.6726 24.7127 58.2637C23.4198 57.8549 22.2367 57.9149 21.1632 58.4439C20.0898 58.9729 19.3722 59.8095 19.0104 60.9536Z" fill="white"/>
<path d="M25.5104 43.4163L26.5392 41.7036L33.7809 54.117L32.7613 55.8143L30.3372 51.6703L20.7832 51.2856L21.812 49.5729L29.2978 49.8701L25.5104 43.4163Z" fill="white"/>
<path d="M31.43 35.9963C32.3505 34.9844 33.352 34.4273 34.4345 34.3252C35.5251 34.2142 36.4965 34.5463 37.3486 35.3215C38.2008 36.0967 38.623 37.0324 38.6154 38.1286C38.6158 39.2159 38.1558 40.2655 37.2352 41.2774L35.6363 43.035L39.1514 46.2327L37.8917 47.6175L28.5714 39.1386L31.43 35.9963ZM35.9376 40.243C36.5028 39.6216 36.8005 39.0002 36.8306 38.3786C36.8687 37.7482 36.6215 37.1907 36.0889 36.7062C35.5563 36.2217 34.978 36.0282 34.354 36.1257C33.7381 36.2142 33.1475 36.5692 32.5822 37.1906L31.056 38.8682L34.4114 41.9206L35.9376 40.243Z" fill="white"/>
<path d="M36.9858 30.264L38.4956 29.1573L44.0718 36.7645L43.5912 25.4221L45.0285 24.3686L52.4776 34.5308L50.9823 35.6269L45.4061 28.0198L45.8866 39.3621L44.4349 40.4263L36.9858 30.264Z" fill="white"/>
<path d="M58.9444 17.6854L63.9393 29.253L62.2703 29.9737L57.8962 19.8437L51.9967 22.3911L55.4788 30.4554C55.8308 31.2707 55.8995 31.9142 55.6849 32.3859C55.4656 32.8466 55.0585 33.2054 54.4636 33.4622C53.8356 33.7334 53.2805 33.8554 52.7983 33.8284L52.1703 32.3742C52.6794 32.4027 53.0991 32.3456 53.4296 32.2029C53.661 32.103 53.7985 31.9522 53.842 31.7504C53.8966 31.5438 53.874 31.3249 53.7741 31.0935L49.7068 21.6741L58.9444 17.6854Z" fill="white"/>
<path d="M68.6303 15.3014C70.198 15.0024 71.6396 15.2588 72.955 16.0708L72.062 17.6337C71.1424 17.0395 70.1168 16.8503 68.9852 17.0662C67.8654 17.2798 66.9595 17.9106 66.2677 18.9588C65.5853 19.993 65.3656 21.1466 65.6084 22.4196C65.8512 23.6927 66.4813 24.6903 67.4986 25.4125C68.5255 26.1206 69.5988 26.3679 70.7186 26.1543C71.8267 25.943 72.7202 25.3755 73.3991 24.452L74.7871 25.5799C73.8438 26.8471 72.5942 27.6291 71.0382 27.9258C70.0009 28.1237 68.9613 28.0532 67.9194 27.7144C66.8752 27.3639 65.9533 26.7578 65.1538 25.8964C64.3542 25.0349 63.8409 24.0089 63.6138 22.8184C63.3845 21.6161 63.483 20.4673 63.9093 19.372C64.3334 18.265 64.9675 17.3622 65.8116 16.6636C66.6534 15.9533 67.593 15.4993 68.6303 15.3014Z" fill="white"/>
<rect width="2" height="20" transform="matrix(-1 0 0 1 41.0209 114)" fill="white"/>
<rect width="2" height="20" transform="matrix(0 -1 -1 0 50 125)" fill="white"/>
<rect width="2" height="20" transform="matrix(0.707107 -0.707107 -0.707107 -0.707107 46.3854 131.797)" fill="white"/>
<rect width="2" height="20" transform="matrix(0.707107 0.707107 0.707107 -0.707107 32.2396 130.385)" fill="white"/>
<rect width="2" height="20" transform="matrix(-1 0 0 1 121.021 27)" fill="white"/>
<rect width="2" height="20" transform="matrix(0 -1 -1 0 130 38)" fill="white"/>
<rect width="2" height="20" transform="matrix(0.707107 -0.707107 -0.707107 -0.707107 126.385 44.7969)" fill="white"/>
<rect width="2" height="20" transform="matrix(0.707107 0.707107 0.707107 -0.707107 112.24 43.3854)" fill="white"/>
<path d="M94.75 78.701C95.75 79.2783 95.75 80.7217 94.75 81.299L73.75 93.4234C72.75 94.0007 71.5 93.2791 71.5 92.1244V67.8756C71.5 66.7209 72.75 65.9993 73.75 66.5766L94.75 78.701Z" stroke="white" stroke-width="3"/>
</svg>
