<svg width="141" height="141" viewBox="0 0 141 141" fill="none" xmlns="http://www.w3.org/2000/svg">
<path d="M135.356 77.5107C135.203 79.0993 134.551 80.4107 133.402 81.4449L132.153 80.1487C132.982 79.4331 133.452 78.502 133.563 77.3553C133.672 76.2206 133.322 75.174 132.51 74.2154C131.709 73.27 130.664 72.7349 129.374 72.6102C128.084 72.4854 126.95 72.8097 125.971 73.5831C125.002 74.3696 124.463 75.3301 124.354 76.4648C124.245 77.5876 124.539 78.6046 125.234 79.5158L123.762 80.5307C122.811 79.2693 122.411 77.8503 122.564 76.2737C122.665 75.2226 123.025 74.2447 123.643 73.3399C124.273 72.4364 125.114 71.722 126.165 71.1967C127.217 70.6715 128.346 70.4672 129.552 70.5839C130.77 70.7017 131.845 71.1191 132.776 71.836C133.72 72.5541 134.408 73.4164 134.841 74.4228C135.286 75.4303 135.458 76.4596 135.356 77.5107Z" fill="white"/>
<path d="M130.02 97.3842L118.111 93.2696L118.722 91.5003L126.667 94.2453L119.986 87.8424L120.486 86.3963L129.666 85.5116L121.738 82.7725L122.349 81.0031L134.258 85.1177L133.67 86.819L122.717 87.9861L130.614 95.6659L130.02 97.3842Z" fill="white"/>
<path d="M124.71 106.544C123.786 107.918 122.461 108.791 120.735 109.163C119.01 109.535 117.385 109.209 115.862 108.184C114.339 107.159 113.424 105.777 113.119 104.038C112.814 102.3 113.123 100.743 114.048 99.3694C114.952 98.0253 116.274 97.1574 118.013 96.7655C119.762 96.3803 121.393 96.6969 122.906 97.7152C124.42 98.7335 125.322 100.122 125.614 101.881C125.916 103.646 125.615 105.2 124.71 106.544ZM123.217 105.54C123.854 104.594 124.05 103.518 123.805 102.312C123.564 101.123 122.886 100.153 121.771 99.4027C120.656 98.6524 119.497 98.3861 118.295 98.6039C117.095 98.8384 116.178 99.4285 115.541 100.374C114.871 101.37 114.664 102.452 114.918 103.622C115.173 104.791 115.862 105.754 116.987 106.511C118.112 107.268 119.264 107.544 120.444 107.34C121.623 107.135 122.547 106.535 123.217 105.54Z" fill="white"/>
<path d="M112.436 120.271L111.291 119.075L113.735 116.735L106.167 108.83L107.585 107.473L115.153 115.378L117.597 113.038L118.742 114.234L112.436 120.271Z" fill="white"/>
<path d="M105.965 124.945C104.822 125.697 103.713 125.987 102.64 125.817C101.556 125.653 100.697 125.09 100.065 124.127C99.4322 123.164 99.2558 122.153 99.5358 121.093C99.8058 120.04 100.512 119.138 101.656 118.387L103.641 117.082L101.032 113.11L102.596 112.082L109.516 122.613L105.965 124.945ZM102.655 119.711C101.953 120.173 101.51 120.7 101.327 121.295C101.133 121.896 101.234 122.498 101.629 123.099C102.025 123.701 102.537 124.032 103.165 124.093C103.784 124.16 104.444 123.963 105.146 123.502L107.042 122.257L104.551 118.466L102.655 119.711Z" fill="white"/>
<path d="M93.461 119.464L87.8589 121.883L87.2096 120.379L94.5633 117.204L99.5582 128.771L92.3697 131.875L91.7204 130.371L97.1572 128.024L95.6159 124.454L91.8316 126.088L91.1823 124.585L94.9666 122.951L93.461 119.464Z" fill="white"/>
<path d="M81.0104 134.868L80.6321 133.256L83.9267 132.483L81.427 121.829L83.3372 121.381L85.8368 132.035L89.1314 131.262L89.5096 132.875L81.0104 134.868Z" fill="white"/>
<path d="M72.5202 122.991L76.7651 122.827L77.2512 135.418L75.3806 135.49L75.1973 130.742L72.823 130.833C71.4561 130.886 70.3567 130.562 69.5251 129.862C68.6815 129.162 68.2374 128.236 68.193 127.085C68.1485 125.934 68.5199 124.977 69.307 124.214C70.0822 123.452 71.1533 123.044 72.5202 122.991ZM72.8671 129.174L75.1334 129.087L74.9584 124.554L72.692 124.642C71.8527 124.674 71.2008 124.897 70.7364 125.312C70.2601 125.726 70.0358 126.293 70.0636 127.013C70.0914 127.732 70.3587 128.28 70.8656 128.657C71.3605 129.034 72.0277 129.207 72.8671 129.174Z" fill="white"/>
<path d="M4.46855 62.5249L4.47557 60.7069L17.0755 60.7556L17.0048 79.0614L4.4049 79.0128L4.41192 77.1948L15.4278 77.2373L15.4526 70.8114L4.43672 70.7689L4.44374 68.9509L15.4597 68.9934L15.4845 62.5674L4.46855 62.5249Z" fill="white"/>
<path d="M7.29412 50.4109C7.7934 48.8319 8.81832 47.6206 10.3689 46.7768C11.9194 45.933 13.57 45.7879 15.3206 46.3415C17.0711 46.8951 18.3382 47.9628 19.1217 49.5446C19.9052 51.1265 20.0473 52.7068 19.5481 54.2858C19.0596 55.8304 18.0365 57.036 16.4787 57.9027C14.9095 58.7657 13.2553 58.9223 11.5162 58.3723C9.77707 57.8224 8.51936 56.745 7.74307 55.1403C6.95533 53.532 6.80568 51.9555 7.29412 50.4109ZM9.01035 50.9536C8.66664 52.0405 8.78215 53.128 9.35689 54.2159C9.9238 55.2887 10.848 56.0278 12.1294 56.433C13.4109 56.8382 14.5977 56.7667 15.6898 56.2185C16.7741 55.6552 17.4881 54.83 17.8318 53.7431C18.1936 52.5989 18.0874 51.5019 17.5133 50.4519C16.9391 49.4019 16.0056 48.6725 14.7127 48.2637C13.4198 47.8548 12.2367 47.9149 11.1632 48.4439C10.0898 48.9729 9.37216 49.8094 9.01035 50.9536Z" fill="white"/>
<path d="M15.5104 33.4163L16.5392 31.7036L23.7809 44.117L22.7613 45.8143L20.3372 41.6703L10.7832 41.2856L11.812 39.5729L19.2978 39.8701L15.5104 33.4163Z" fill="white"/>
<path d="M21.43 25.9963C22.3505 24.9844 23.352 24.4273 24.4345 24.3252C25.5251 24.2142 26.4965 24.5463 27.3486 25.3215C28.2008 26.0967 28.623 27.0324 28.6154 28.1286C28.6158 29.2159 28.1558 30.2655 27.2352 31.2774L25.6363 33.035L29.1514 36.2327L27.8917 37.6174L18.5714 29.1386L21.43 25.9963ZM25.9376 30.2429C26.5028 29.6216 26.8005 29.0001 26.8306 28.3786C26.8687 27.7482 26.6215 27.1907 26.0889 26.7062C25.5563 26.2217 24.978 26.0282 24.354 26.1256C23.7381 26.2142 23.1475 26.5692 22.5822 27.1905L21.056 28.8682L24.4114 31.9206L25.9376 30.2429Z" fill="white"/>
<path d="M26.9858 20.264L28.4956 19.1573L34.0718 26.7644L33.5912 15.4221L35.0285 14.3686L42.4776 24.5308L40.9823 25.6269L35.4061 18.0197L35.8866 29.3621L34.4349 30.4262L26.9858 20.264Z" fill="white"/>
<path d="M48.9444 7.68535L53.9393 19.253L52.2703 19.9737L47.8962 9.84374L41.9967 12.3911L45.4788 20.4554C45.8308 21.2707 45.8995 21.9142 45.6849 22.3859C45.4656 22.8466 45.0585 23.2054 44.4636 23.4622C43.8356 23.7334 43.2805 23.8554 42.7983 23.8284L42.1703 22.3742C42.6794 22.4027 43.0991 22.3456 43.4296 22.2029C43.661 22.103 43.7985 21.9522 43.842 21.7504C43.8966 21.5438 43.874 21.3249 43.7741 21.0935L39.7068 11.6741L48.9444 7.68535Z" fill="white"/>
<path d="M58.6303 5.30139C60.198 5.00236 61.6396 5.25881 62.955 6.07073L62.062 7.63372C61.1424 7.03949 60.1168 6.8503 58.9852 7.06614C57.8654 7.27973 56.9595 7.91062 56.2677 8.95881C55.5853 9.99296 55.3656 11.1466 55.6084 12.4196C55.8512 13.6927 56.4813 14.6903 57.4986 15.4125C58.5255 16.1206 59.5988 16.3679 60.7186 16.1543C61.8267 15.943 62.7202 15.3755 63.3991 14.4519L64.7871 15.5799C63.8438 16.847 62.5942 17.629 61.0382 17.9258C60.0009 18.1236 58.9613 18.0532 57.9194 17.7144C56.8752 17.3638 55.9533 16.7578 55.1538 15.8964C54.3542 15.0349 53.8409 14.0089 53.6138 12.8184C53.3845 11.6161 53.483 10.4673 53.9093 9.37198C54.3334 8.26492 54.9675 7.36213 55.8116 6.66362C56.6534 5.95331 57.593 5.49924 58.6303 5.30139Z" fill="white"/>
<rect width="2" height="20" transform="matrix(-1 0 0 1 31.0209 104)" fill="white"/>
<rect width="2" height="20" transform="matrix(0 -1 -1 0 40 115)" fill="white"/>
<rect width="2" height="20" transform="matrix(0.707107 -0.707107 -0.707107 -0.707107 36.3854 121.797)" fill="white"/>
<rect width="2" height="20" transform="matrix(0.707107 0.707107 0.707107 -0.707107 22.2396 120.385)" fill="white"/>
<rect width="2" height="20" transform="matrix(-1 0 0 1 111.021 17)" fill="white"/>
<rect width="2" height="20" transform="matrix(0 -1 -1 0 120 28)" fill="white"/>
<rect width="2" height="20" transform="matrix(0.707107 -0.707107 -0.707107 -0.707107 116.385 34.7969)" fill="white"/>
<rect width="2" height="20" transform="matrix(0.707107 0.707107 0.707107 -0.707107 102.24 33.3854)" fill="white"/>
</svg>
